<svg version="1.1" xmlns="http://www.w3.org/2000/svg" xmlns:xlink="http://www.w3.org/1999/xlink" width="510" height="382" viewBox="0,0,510,382"><g transform="translate(15,11)"><g data-paper-data="{&quot;isPaintingLayer&quot;:true}" fill-rule="nonzero" stroke-linecap="butt" stroke-linejoin="miter" stroke-miterlimit="10" stroke-dasharray="" stroke-dashoffset="0" style="mix-blend-mode: normal"><path d="M-14,370v-380h508v380z" fill="#6697ff" stroke="#000000" stroke-width="2"/><path d="M167.11864,80.2612c0,37.9634 -34.94835,68.73881 -78.05932,68.73881c-43.11097,0 -78.05932,-30.77541 -78.05932,-68.7388c0,-37.96339 34.94834,-68.7388 78.05932,-68.7388c43.11098,0 78.05932,30.77541 78.05932,68.73881z" fill="#ff7b00" stroke="none" stroke-width="0"/><path d="M284.40764,3.69659c2.67059,3.22213 -4.70438,18.36144 -13.95406,34.02497c-10.28087,17.40977 -22.87774,35.46717 -26.57101,38.52825c-7.01609,5.81513 -19.45298,5.52027 -25.0919,-1.28321c-5.63892,-6.80348 -2.34452,-17.53923 4.67157,-23.35436c7.01609,-5.81513 55.30648,-54.71912 60.9454,-47.91564z" fill="#ffffff" stroke="none" stroke-width="0"/><path d="M262.10758,59.84557c5.28649,6.37826 4.91849,15.40585 -0.82194,20.16369c-5.74043,4.75784 -14.67952,3.44423 -19.96601,-2.93403c-5.28648,-6.37826 -4.91849,-15.40585 0.82194,-20.16369c5.74043,-4.75784 14.67952,-3.44422 19.966,2.93404z" fill="#ffffff" stroke="none" stroke-width="0"/><path d="M278.55344,62.45013c5.11027,6.16565 4.77177,14.87804 -0.75605,19.45966c-5.52783,4.58162 -14.15171,3.29751 -19.26198,-2.86814c-5.11027,-6.16565 -4.77177,-14.87804 0.75606,-19.45966c5.52783,-4.58162 14.1517,-3.29751 19.26198,2.86814z" fill="#ffffff" stroke="none" stroke-width="0"/><path d="M292.44676,61.975c4.22919,5.10261 3.6935,12.52467 -1.1965,16.57764c-4.89,4.05298 -12.28256,3.20208 -16.51175,-1.90053c-4.22919,-5.10261 -3.69349,-12.52467 1.19651,-16.57765c4.89,-4.05298 12.28256,-3.20208 16.51175,1.90053z" fill="#ffffff" stroke="none" stroke-width="0"/><path d="M310.71685,52.67695c5.46271,6.59087 3.51402,17.21933 -4.3525,23.73933c-7.86652,6.52 -18.67199,6.46255 -24.1347,-0.12832c-5.46271,-6.59087 -3.51402,-17.21933 4.3525,-23.73933c7.86652,-6.52 18.67199,-6.46255 24.1347,0.12832z" fill="#ffffff" stroke="none" stroke-width="0"/><path d="M307.81056,38.20099c7.22487,8.71695 6.01528,21.64035 -2.70167,28.86522c-8.71695,7.22486 -21.64035,6.01529 -28.86522,-2.70167c-7.22487,-8.71695 -6.01529,-21.64036 2.70167,-28.86523c8.71695,-7.22487 21.64036,-6.01528 28.86522,2.70168z" fill="#ffffff" stroke="none" stroke-width="0"/><path d="M288.38211,25.7296c12.15892,14.67 11.84683,34.99062 -0.69709,45.38737c-12.54392,10.39675 -32.56952,6.93261 -44.72844,-7.73739c-12.15892,-14.67 -11.84682,-34.99062 0.6971,-45.38738c12.54392,-10.39676 32.56951,-6.9326 44.72843,7.7374z" fill="#ffffff" stroke="none" stroke-width="0"/><path d="M-13,367.4837v-76h502v76z" fill="#4ec35e" stroke="#000000" stroke-width="2"/><text transform="translate(72.75158,192.26875) scale(1.06338,1.06338)" font-size="40" xml:space="preserve" fill="#feff00" fill-rule="nonzero" stroke="none" stroke-width="1" stroke-linecap="butt" stroke-linejoin="miter" stroke-miterlimit="10" stroke-dasharray="" stroke-dashoffset="0" font-family="Sans Serif" font-weight="normal" text-anchor="start" style="mix-blend-mode: normal"><tspan x="0" dy="0">ProID OS Lemon</tspan></text></g></g></svg>